<svg id="Layer_1" data-name="Layer 1" xmlns="http://www.w3.org/2000/svg" viewBox="0 0 137 351"><defs><style>.cls-1{fill:#1a1d1f;}.cls-2{fill:#ea3d2f;}</style></defs><path class="cls-1" d="M193,534l7-194s1-33,6-54,33-67,33-67l27-36,32,42s21,42,24,53,8,35,8,71-3.11,185-3.11,185L261,473Z" transform="translate(-193 -183)"/><path class="cls-2" d="M227.71,288s-7,1-9,8a14,14,0,0,0,2,12s6.51,5,13.25,0a11.51,11.51,0,0,0,4.75-12S235.71,287,227.71,288Z" transform="translate(-193 -183)"/><path class="cls-2" d="M224.17,324.64s-2-1-8.44,6.07c-3.56,4.93,1.44,13.93,4.22,15,3.12,1.17,10.29,1.41,12.75-3.82s1.17-10.09,0-13.15C231.22,324.83,224.17,324.64,224.17,324.64Z" transform="translate(-193 -183)"/><path class="cls-2" d="M223.7,361s-7.61.57-8.81,7.28,4.41,10.93,4.41,10.93,9.4,1.79,13.4-4.21S229.7,359,223.7,361Z" transform="translate(-193 -183)"/><rect class="cls-2" x="17.58" y="256.86" width="8.29" height="31.31"/><polygon class="cls-2" points="45.06 257.06 36.65 257.06 35.57 287.18 43.16 287.18 45.06 257.06"/><polygon class="cls-2" points="63.79 256.65 55.1 256.65 54.02 287.58 61.62 287.58 63.79 256.65"/><path class="cls-2" d="M275,440.86h-8.68s-.54,24.16,0,29.31h6.78Z" transform="translate(-193 -183)"/><polygon class="cls-2" points="100.96 258.4 93.37 258.4 91.19 289.06 98.79 289.06 100.96 258.4"/><polygon class="cls-2" points="119.42 257.59 111.28 257.59 109.92 287.44 117.25 287.44 119.42 257.59"/></svg>